# xmcd CD database file
# Copyright (C) 1995-1998 Ti Kan
#
# Track frame offsets:
#	182
#	14750
#	28570
#	42815
#	58590
#	75695
#	88180
#	104430
#	121960
#	136945
#	151915
#
# Disc length: 2339 seconds
#
# Revision: 1
# Processed by: cddbd v1.4b41PL1 Copyright (c) Steve Scherf et al.
# Submitted via: CDex 1.30
#
DISCID=8809210b
DTITLE=Andy Griggs - You Won't Ever Be Lonely
DYEAR=1999
DGENRE=Country
TTITLE0=You Made Me That Way
TTITLE1=I'll Go Crazy
TTITLE2=I Miss You The Most
TTITLE3=You Won't Ever Be Lonely
TTITLE4=Waitin' On Sundown
TTITLE5=A Side Of Me
TTITLE6=I Don't Know A Thing
TTITLE7=Shine On Me (With Waylon Jennings)
TTITLE8=Ain't Done Nothin' Wrong
TTITLE9=She's More
TTITLE10=Ain't Livin' Long Like This
EXTD=\nYEAR: 1999  ID3G:   2
EXTT0=
EXTT1=
EXTT2=
EXTT3=
EXTT4=
EXTT5=
EXTT6=
EXTT7=
EXTT8=
EXTT9=
EXTT10=
PLAYORDER=
